PathFileType	4	(X/Y/Z)	s08c0202.trc
DataRate	CameraRate	NumFrames	NumMarkers	Units	OrigDataRate	OrigDataStartFrame	OrigNumFrames
200	200	4	50	mm	200	750	2000
Frame#	Time	racr			lacr			c7			jug			rlel			rdr			llel			ldr			s2			lic			ric			lasi			rasi			rpsi			lpsi			rgt			lgt			rth1			rth2			rth3			rth4			rlfc			rmfc			rsh1			rsh2			rsh3			rsh4			rlmal			rmmal			rcal			rtoe			rmt5			lth1			lth2			lth4			lth3			llfc			lmfc			llmal			lmmal			lcal			lmt5			lsh1			lsh2			lsh3			lsh4			ltoe			SBIKE			LBIKE			RBIKE			
		X1	Y1	Z1	X2	Y2	Z2	X3	Y3	Z3	X4	Y4	Z4	X5	Y5	Z5	X6	Y6	Z6	X7	Y7	Z7	X8	Y8	Z8	X9	Y9	Z9	X10	Y10	Z10	X11	Y11	Z11	X12	Y12	Z12	X13	Y13	Z13	X14	Y14	Z14	X15	Y15	Z15	X16	Y16	Z16	X17	Y17	Z17	X18	Y18	Z18	X19	Y19	Z19	X20	Y20	Z20	X21	Y21	Z21	X22	Y22	Z22	X23	Y23	Z23	X24	Y24	Z24	X25	Y25	Z25	X26	Y26	Z26	X27	Y27	Z27	X28	Y28	Z28	X29	Y29	Z29	X30	Y30	Z30	X31	Y31	Z31	X32	Y32	Z32	X33	Y33	Z33	X34	Y34	Z34	X35	Y35	Z35	X36	Y36	Z36	X37	Y37	Z37	X38	Y38	Z38	X39	Y39	Z39	X40	Y40	Z40	X41	Y41	Z41	X42	Y42	Z42	X43	Y43	Z43	X44	Y44	Z44	X45	Y45	Z45	X46	Y46	Z46	X47	Y47	Z47	X48	Y48	Z48	X49	Y49	Z49	X50	Y50	Z50	
750	3.7500	551.779705	1331.522302	-41.319038	568.089299	1350.790553	-376.475191	530.537710	1421.784447	-199.819164	520.910294	1260.129714	-214.283219	546.098370	1082.444747	76.364558	763.233977	928.668126	-62.498893	543.383918	1106.292754	-525.500447	746.969735	939.787846	-440.144924	-15.554844	1202.493009	-258.697179	152.022039	1200.948620	-402.205607	125.387620	1215.024835	-88.549290	173.404054	1147.282403	-370.890702	161.906179	1169.902443	-127.268416	6.152326	1248.297157	-209.257444	16.181065	1247.271639	-302.857301	78.895498	1123.318698	-50.358211	80.062334	1073.241591	-429.780656	229.005104	1046.978388	-51.802746	317.072425	1031.764136	-53.334441	383.228280	975.668351	-56.175670	331.815763	1063.354475	-66.177406	474.874967	911.450590	-72.883526	459.181147	899.822126	-192.113409	382.437045	829.051004	-45.685849	344.440671	748.764113	-63.279886	273.968414	699.645679	-65.742678	370.604038	731.965238	-89.379176	191.155082	612.072489	-71.228440	216.966122	620.533898	-157.835936	108.662957	623.901088	-117.154649	359.179956	460.141914	-110.373146	266.728658	483.556321	-43.704075	132.576654	947.651255	-445.511913	183.799265	876.388722	-447.285121	217.469843	888.825810	-438.353483	191.429246	787.703032	-444.531301	225.027841	664.905052	-417.797276	225.234372	640.499082	-315.374229	207.228612	248.958282	-413.129908	237.171236	269.045555	-332.425100	147.574611	240.971513	-373.912984	338.652097	137.162967	-421.982030	208.804994	535.912762	-443.558371	231.087180	454.394207	-428.416691	210.105788	368.377942	-426.004987	254.854807	457.960436	-396.141346	423.354738	153.703853	-351.745467	-145.304355	937.072102	-230.185679	10.935724	79.719859	-427.185112	10.950222	80.460607	-28.728066	
751	3.7550	549.035107	1330.230850	-37.978195	569.337414	1350.788194	-372.731232	530.235141	1419.854272	-196.456590	520.566795	1258.176202	-210.661217	544.632573	1080.019800	77.395792	763.113699	928.921599	-62.203294	546.282946	1108.410862	-525.052022	747.679425	939.445321	-440.482130	-16.324726	1203.428381	-261.707358	152.660935	1199.444178	-404.374499	123.499752	1216.154097	-91.527221	173.020449	1145.860322	-373.063754	160.595218	1171.051253	-128.990267	4.976588	1249.292439	-211.994915	15.334969	1247.736823	-306.098733	78.279499	1127.059915	-51.432378	78.660012	1072.754329	-431.787929	228.361159	1051.100645	-54.179511	316.525246	1036.612148	-55.747292	383.057675	981.034944	-58.551051	330.983475	1068.301378	-68.795370	476.241781	917.806606	-76.198007	460.160681	906.058598	-194.081621	385.804795	833.728485	-46.810031	349.208370	752.680441	-64.071476	279.780106	702.291284	-66.069390	375.505411	736.357933	-90.358171	197.846791	612.774023	-71.146280	223.754839	621.584715	-157.659619	114.628443	622.296192	-116.773005	369.695284	465.765082	-110.576495	276.745395	486.340790	-43.816032	129.798943	946.864121	-447.574999	180.543883	875.267254	-450.207548	214.435875	887.518416	-441.490957	187.605296	786.521093	-446.894040	221.632235	663.971628	-418.591148	223.014931	639.961058	-315.698001	197.716634	248.201599	-412.540734	227.884058	267.761953	-331.457291	138.065203	240.719931	-373.033901	327.967254	135.022322	-421.875747	203.869157	535.064897	-443.471661	224.819666	453.401729	-428.280645	202.447675	367.674039	-425.448559	248.805878	456.592733	-396.003185	413.011370	150.748916	-351.767410	-145.368020	937.052348	-230.224525	10.944832	79.722677	-427.186609	10.944257	80.526817	-28.713278	
752	3.7600	546.282023	1328.886510	-34.696071	570.497633	1350.397235	-368.896548	530.168355	1417.885364	-193.415130	519.858028	1256.207056	-207.191726	543.120991	1077.831378	78.476945	762.929327	929.090667	-61.913820	549.093036	1110.227762	-524.513934	748.371902	939.025665	-441.024019	-17.059592	1204.605026	-264.434955	152.880849	1198.195602	-406.143030	121.563469	1217.506116	-94.025134	172.395346	1144.670279	-375.238807	158.876040	1173.580535	-132.423433	5.290874	1250.610767	-215.457505	15.346723	1248.440437	-309.447370	77.327923	1130.484783	-53.492452	77.047386	1072.385723	-433.601763	228.220824	1056.219430	-54.991346	315.633105	1041.250496	-58.195543	382.462654	986.112730	-60.601343	330.024468	1072.960666	-71.194766	476.296792	923.609114	-78.035807	460.470153	911.521966	-196.060457	388.677249	837.511190	-48.030654	353.594373	755.972492	-65.015797	285.027668	704.183732	-66.463066	379.846387	739.999449	-91.539221	204.282115	612.427290	-71.110960	228.995779	621.725776	-158.030723	120.182383	619.349065	-116.447338	380.257796	471.213395	-110.813142	286.751444	488.723959	-43.837812	127.243357	946.261020	-449.547036	177.802579	874.449045	-452.788340	211.875934	886.581969	-444.438333	184.677803	785.777522	-448.993222	219.425841	663.387089	-419.101662	221.696661	639.652974	-315.702456	188.066916	248.185485	-411.839747	218.557504	267.188777	-330.178496	128.386671	241.000853	-371.973672	317.192293	133.312844	-421.805736	199.623647	534.866996	-443.164430	219.086656	452.869091	-427.930924	195.020088	367.557412	-424.610122	243.285501	455.551209	-395.681623	402.484413	148.378400	-351.838255	-145.454044	937.030616	-230.369672	10.936337	79.654763	-427.245715	10.931710	80.470726	-28.740719	
753	3.7650	543.502232	1327.537003	-31.694139	571.662412	1349.472492	-365.099917	529.970516	1415.492995	-190.401043	519.281598	1253.784682	-203.554799	541.858564	1075.618112	79.261371	762.840437	929.373573	-61.513338	551.802236	1111.667894	-524.023970	749.066640	938.589854	-441.722146	-17.751792	1205.899645	-267.156410	152.877532	1197.165170	-408.021415	119.602628	1219.221057	-95.846952	172.497403	1143.966603	-378.153720	156.215984	1176.925490	-131.267594	5.104207	1251.990734	-218.645124	15.123590	1249.430086	-312.310959	76.317342	1134.309237	-55.574306	75.193351	1072.150506	-435.281597	227.228560	1060.276128	-57.272516	314.472392	1045.406422	-60.450833	381.448182	990.365992	-62.506915	328.889428	1077.293338	-73.286058	475.754407	928.409034	-79.938238	459.939767	916.127067	-198.100163	391.184464	840.818310	-49.016994	357.183627	758.354942	-66.179832	289.681209	705.294144	-67.000561	383.615921	742.947723	-92.713927	210.108818	611.181396	-71.239963	234.157829	621.014433	-158.352159	125.355172	615.076423	-116.212791	390.674818	476.520855	-111.016976	296.711119	490.389553	-43.913022	125.079538	945.681323	-451.357541	175.645126	873.886029	-454.899852	209.879025	886.263282	-447.148751	182.676732	785.320943	-450.554541	218.530572	663.421474	-419.285214	221.420949	639.776858	-315.277187	178.394068	248.773039	-410.894111	209.569957	267.273863	-329.096360	118.604821	241.836971	-370.730265	306.113869	132.905610	-421.691116	196.282415	535.104163	-442.539083	213.866508	452.793023	-427.226712	187.893430	368.051444	-423.581864	238.383303	455.025831	-395.170268	391.826284	146.550578	-351.826507	-145.542439	937.047283	-230.617234	10.925676	79.646448	-427.227446	10.944417	80.531033	-28.760887	
